<svg id="svg" xmlns="http://www.w3.org/2000/svg" xmlns:xlink="http://www.w3.org/1999/xlink" width="400" height="400" viewBox="0, 0, 400,400"><g id="svgg"><path id="path3" d="M236.563 282.628 C 236.231 283.422,235.176 286.170,234.218 288.736 C 233.260 291.301,230.829 297.540,228.815 302.600 C 222.209 319.198,206.400 360.088,206.400 360.575 C 206.400 360.707,210.222 360.767,214.893 360.708 L 223.385 360.600 226.569 351.700 L 229.753 342.800 245.635 342.800 L 261.517 342.800 262.935 346.500 C 263.715 348.535,265.240 352.540,266.323 355.400 L 268.294 360.600 277.175 360.708 C 282.060 360.767,285.969 360.673,285.861 360.499 C 285.754 360.325,281.412 349.477,276.212 336.391 C 271.013 323.306,266.486 311.970,266.152 311.200 C 265.818 310.430,262.980 303.410,259.845 295.600 L 254.145 281.400 245.656 281.292 L 237.166 281.184 236.563 282.628 M295.075 281.458 C 294.924 281.610,294.800 299.523,294.800 321.267 L 294.800 360.800 303.000 360.800 L 311.200 360.800 311.200 348.750 L 311.200 336.701 317.272 330.450 C 324.398 323.116,323.843 323.393,325.551 326.300 C 326.294 327.565,329.911 333.730,333.589 340.000 C 337.267 346.270,341.519 353.512,343.038 356.093 L 345.800 360.787 356.100 360.793 C 361.765 360.797,366.400 360.709,366.400 360.597 C 366.400 360.485,363.279 355.580,359.464 349.697 C 344.105 326.010,341.757 322.397,338.528 317.476 L 335.165 312.351 339.037 308.276 C 341.166 306.034,347.834 299.138,353.854 292.951 C 359.874 286.764,364.800 281.589,364.800 281.451 C 364.800 281.313,359.955 281.200,354.033 281.200 L 343.267 281.200 342.533 282.154 C 342.130 282.678,334.960 290.533,326.600 299.609 L 311.400 316.110 311.200 298.755 L 311.000 281.400 303.175 281.292 C 298.871 281.232,295.226 281.307,295.075 281.458 M258.765 300.905 C 262.376 309.977,267.388 322.530,269.904 328.800 C 272.419 335.070,275.919 343.890,277.682 348.400 C 279.445 352.910,280.979 356.830,281.091 357.112 C 281.251 357.515,280.137 357.600,275.807 357.512 L 270.320 357.400 267.437 349.800 C 265.851 345.620,264.336 341.801,264.070 341.314 C 263.181 339.684,261.511 339.542,244.709 339.675 L 228.817 339.800 227.841 340.800 C 227.214 341.442,225.872 344.591,224.090 349.600 L 221.316 357.400 216.010 357.512 C 211.060 357.616,210.724 357.576,210.990 356.912 C 211.147 356.520,212.615 352.690,214.253 348.400 C 215.891 344.110,219.648 334.390,222.602 326.800 C 233.337 299.209,235.314 294.113,237.140 289.307 L 239.000 284.414 245.600 284.411 L 252.200 284.409 258.765 300.905 M308.000 301.000 C 308.212 318.368,308.229 318.523,310.005 319.142 C 311.998 319.837,312.501 319.386,325.672 305.082 C 332.783 297.361,339.615 289.954,340.857 288.622 C 342.098 287.290,343.448 285.789,343.857 285.287 C 344.583 284.395,344.751 284.376,351.059 284.487 L 357.517 284.600 345.304 297.182 C 338.587 304.102,332.847 310.348,332.548 311.063 C 331.796 312.862,331.865 312.999,339.126 324.098 C 346.490 335.353,355.755 349.595,358.709 354.200 L 360.762 357.400 354.306 357.510 C 349.467 357.593,347.731 357.493,347.377 357.110 C 347.118 356.830,344.158 351.920,340.800 346.200 C 324.736 318.837,326.069 320.800,323.548 320.800 C 322.159 320.800,322.593 320.404,311.900 331.457 L 308.000 335.488 308.000 346.544 L 308.000 357.600 303.000 357.600 L 298.000 357.600 298.000 320.988 L 298.000 284.375 302.900 284.488 L 307.800 284.600 308.000 301.000 M167.197 302.090 C 167.195 306.551,167.080 311.142,166.942 312.293 L 166.690 314.387 156.445 314.493 L 146.200 314.600 146.200 321.600 L 146.200 328.600 156.500 328.707 L 166.800 328.814 166.800 339.007 L 166.800 349.200 173.800 349.200 L 180.800 349.200 180.800 339.000 L 180.800 328.800 191.200 328.800 L 201.600 328.800 201.600 321.600 L 201.600 314.400 191.207 314.400 L 180.814 314.400 180.707 304.300 L 180.600 294.200 173.900 294.090 L 167.200 293.981 167.197 302.090 M177.679 306.435 L 177.800 315.671 178.922 316.635 C 180.039 317.596,180.088 317.600,189.422 317.600 L 198.800 317.600 198.800 321.600 L 198.800 325.600 189.900 325.601 C 176.886 325.602,177.699 324.800,177.640 337.700 L 177.600 346.400 173.800 346.400 L 170.000 346.400 170.000 337.222 C 170.000 328.099,169.994 328.038,169.035 326.922 L 168.071 325.800 158.635 325.679 L 149.200 325.559 149.200 321.579 L 149.200 317.600 158.618 317.600 L 168.036 317.600 169.018 316.618 L 170.000 315.636 170.000 306.418 L 170.000 297.200 173.779 297.200 L 177.558 297.200 177.679 306.435 M243.419 298.100 C 242.195 299.173,232.402 325.793,232.108 328.844 C 231.772 332.328,232.049 332.400,245.672 332.400 L 257.236 332.400 258.218 331.418 C 259.837 329.800,258.566 325.488,249.755 302.697 C 247.549 296.990,245.981 295.853,243.419 298.100 M247.927 306.200 C 254.938 325.429,256.000 328.401,256.000 328.780 C 256.000 329.063,252.547 329.200,245.417 329.200 L 234.834 329.200 236.662 324.100 C 238.281 319.583,241.857 309.455,244.041 303.200 C 244.463 301.990,244.903 300.745,245.017 300.433 C 245.364 299.492,245.788 300.333,247.927 306.200 " stroke="none" fill="#040505" fill-rule="evenodd"></path><path id="path4" d="M239.061 284.700 C 238.958 284.865,240.882 284.953,243.337 284.895 C 251.428 284.705,252.296 284.552,245.724 284.476 C 242.162 284.434,239.163 284.535,239.061 284.700 M298.189 284.887 C 298.082 285.169,298.041 301.600,298.099 321.400 L 298.204 357.400 298.302 321.100 L 298.400 284.800 302.995 284.800 L 307.591 284.800 307.702 300.500 L 307.814 316.200 307.807 300.400 L 307.800 284.600 303.092 284.487 C 299.548 284.402,298.336 284.501,298.189 284.887 M350.779 284.700 L 356.958 284.822 353.979 287.911 L 351.000 291.000 354.100 288.010 C 358.065 284.186,358.247 284.385,350.900 284.489 L 344.600 284.578 350.779 284.700 M337.600 292.200 C 336.628 293.190,335.923 294.000,336.033 294.000 C 336.143 294.000,337.028 293.190,338.000 292.200 C 338.972 291.210,339.677 290.400,339.567 290.400 C 339.457 290.400,338.572 291.210,337.600 292.200 M166.970 302.400 C 166.970 307.130,167.028 309.065,167.098 306.700 C 167.169 304.335,167.169 300.465,167.098 298.100 C 167.028 295.735,166.970 297.670,166.970 302.400 M343.000 299.200 C 340.367 301.840,338.303 304.000,338.413 304.000 C 338.523 304.000,340.767 301.840,343.400 299.200 C 346.033 296.560,348.097 294.400,347.987 294.400 C 347.877 294.400,345.633 296.560,343.000 299.200 M170.171 306.000 C 170.171 310.950,170.228 312.975,170.299 310.500 C 170.369 308.025,170.369 303.975,170.299 301.500 C 170.228 299.025,170.171 301.050,170.171 306.000 M323.775 307.300 L 322.600 308.600 323.900 307.425 C 324.615 306.779,325.200 306.194,325.200 306.125 C 325.200 305.816,324.870 306.088,323.775 307.300 M333.775 308.900 L 332.600 310.200 333.900 309.025 C 334.615 308.379,335.200 307.794,335.200 307.725 C 335.200 307.416,334.870 307.688,333.775 308.900 M149.370 318.133 C 149.258 318.427,149.218 320.182,149.283 322.033 L 149.400 325.400 158.000 325.412 L 166.600 325.423 158.100 325.304 L 149.600 325.184 149.600 321.600 L 149.600 318.015 158.500 317.900 L 167.400 317.784 158.487 317.692 C 151.364 317.618,149.534 317.707,149.370 318.133 M185.100 317.899 C 187.575 317.969,191.625 317.969,194.100 317.899 C 196.575 317.828,194.550 317.771,189.600 317.771 C 184.650 317.771,182.625 317.828,185.100 317.899 M185.278 325.498 C 187.631 325.569,191.591 325.569,194.078 325.499 C 196.565 325.429,194.640 325.371,189.800 325.370 C 184.960 325.370,182.925 325.428,185.278 325.498 M312.585 330.500 L 310.600 332.600 312.700 330.615 C 313.855 329.523,314.800 328.578,314.800 328.515 C 314.800 328.217,314.429 328.549,312.585 330.500 M170.170 337.400 C 170.171 342.240,170.229 344.165,170.299 341.678 C 170.369 339.191,170.369 335.231,170.298 332.878 C 170.228 330.525,170.170 332.560,170.170 337.400 M240.124 332.699 C 243.162 332.767,248.022 332.767,250.924 332.699 C 253.826 332.631,251.340 332.575,245.400 332.575 C 239.460 332.575,237.086 332.631,240.124 332.699 M307.775 346.800 C 307.775 352.630,307.831 355.015,307.899 352.100 C 307.967 349.185,307.967 344.415,307.899 341.500 C 307.831 338.585,307.775 340.970,307.775 346.800 M237.700 339.500 C 242.045 339.564,249.155 339.564,253.500 339.500 C 257.845 339.435,254.290 339.382,245.600 339.382 C 236.910 339.382,233.355 339.435,237.700 339.500 " stroke="none" fill="#a4a4a4" fill-rule="evenodd"></path><path id="path0" d="M2.400 200.000 L 2.400 397.600 200.000 397.600 L 397.600 397.600 397.600 200.000 L 397.600 2.400 200.000 2.400 L 2.400 2.400 2.400 200.000 M286.600 200.000 L 286.600 311.400 276.359 311.400 C 267.370 311.400,266.160 311.473,266.460 312.000 C 266.648 312.330,271.046 323.306,276.234 336.391 C 281.421 349.477,285.754 360.325,285.861 360.499 C 285.969 360.673,282.060 360.767,277.175 360.708 L 268.294 360.600 266.323 355.400 C 265.240 352.540,263.715 348.535,262.935 346.500 L 261.517 342.800 245.635 342.800 L 229.753 342.800 226.569 351.700 L 223.385 360.600 214.893 360.708 C 210.222 360.767,206.400 360.709,206.400 360.579 C 206.400 360.307,215.180 337.396,220.495 323.800 C 222.472 318.740,224.332 313.925,224.628 313.100 L 225.165 311.600 202.982 311.600 L 180.800 311.600 180.800 313.000 L 180.800 314.400 191.200 314.400 L 201.600 314.400 201.600 321.600 L 201.600 328.800 191.200 328.800 L 180.800 328.800 180.800 339.000 L 180.800 349.200 173.800 349.200 L 166.800 349.200 166.800 339.007 L 166.800 328.814 156.500 328.707 L 146.200 328.600 146.200 321.600 L 146.200 314.600 156.500 314.493 L 166.800 314.386 166.800 313.226 C 166.800 312.588,166.907 311.736,167.038 311.333 C 167.205 310.818,167.166 310.752,166.906 311.113 C 166.609 311.525,158.903 311.603,127.569 311.513 L 88.600 311.400 88.600 212.600 L 88.600 113.800 101.000 113.800 L 113.400 113.800 113.501 101.600 C 113.557 94.890,113.686 89.175,113.789 88.899 C 113.938 88.500,131.446 88.419,200.288 88.499 L 286.600 88.600 286.600 200.000 M138.373 114.398 C 138.359 114.619,138.347 117.050,138.347 119.800 C 138.347 122.550,138.359 124.981,138.373 125.202 C 138.391 125.469,152.851 125.569,181.500 125.502 L 224.600 125.400 224.600 119.800 L 224.600 114.200 181.500 114.098 C 152.851 114.031,138.391 114.131,138.373 114.398 M138.576 200.439 C 138.015 201.346,138.263 211.667,138.854 212.042 C 139.154 212.232,141.872 212.391,144.892 212.394 C 151.420 212.401,150.885 213.044,150.715 205.400 L 150.600 200.200 144.730 200.089 C 140.634 200.012,138.774 200.118,138.576 200.439 M138.586 225.222 C 138.439 225.461,138.304 228.119,138.287 231.128 L 138.256 236.600 144.428 236.600 L 150.600 236.600 150.716 231.600 C 150.886 224.226,151.463 224.867,144.627 224.824 C 140.866 224.800,138.761 224.939,138.586 225.222 M138.603 262.396 C 138.422 262.688,138.239 281.741,138.381 285.503 C 138.396 285.903,143.440 285.985,162.900 285.903 L 187.400 285.800 187.496 274.800 C 187.549 268.750,187.500 263.395,187.388 262.900 L 187.185 262.000 163.016 262.000 C 147.515 262.000,138.760 262.142,138.603 262.396 M311.200 298.755 L 311.400 316.110 326.600 299.609 C 334.960 290.533,342.130 282.678,342.533 282.154 L 343.267 281.200 354.033 281.200 C 359.955 281.200,364.800 281.313,364.800 281.451 C 364.800 281.589,359.874 286.764,353.854 292.951 C 347.834 299.138,341.166 306.034,339.037 308.276 L 335.165 312.351 338.528 317.476 C 341.757 322.397,344.105 326.010,359.464 349.697 C 363.279 355.580,366.400 360.485,366.400 360.597 C 366.400 360.709,361.765 360.797,356.100 360.793 L 345.800 360.787 343.038 356.093 C 341.519 353.512,337.267 346.270,333.589 340.000 C 329.911 333.730,326.294 327.565,325.551 326.300 C 323.843 323.393,324.398 323.116,317.272 330.450 L 311.200 336.701 311.200 348.750 L 311.200 360.800 303.000 360.800 L 294.800 360.800 294.800 321.267 C 294.800 299.523,294.924 281.610,295.075 281.458 C 295.226 281.307,298.871 281.232,303.175 281.292 L 311.000 281.400 311.200 298.755 M326.800 303.800 C 325.828 304.790,325.123 305.600,325.233 305.600 C 325.343 305.600,326.228 304.790,327.200 303.800 C 328.172 302.810,328.877 302.000,328.767 302.000 C 328.657 302.000,327.772 302.810,326.800 303.800 M245.438 311.600 L 241.075 311.800 237.980 320.400 L 234.885 329.000 245.302 329.107 C 251.032 329.165,255.814 329.119,255.929 329.004 C 256.044 328.889,254.903 325.421,253.394 321.298 C 251.884 317.174,250.458 313.260,250.225 312.600 L 249.800 311.400 245.438 311.600 M317.200 314.200 C 316.228 315.190,315.523 316.000,315.633 316.000 C 315.743 316.000,316.628 315.190,317.600 314.200 C 318.572 313.210,319.277 312.400,319.167 312.400 C 319.057 312.400,318.172 313.210,317.200 314.200 M198.548 321.600 C 198.548 323.910,198.614 324.855,198.695 323.700 C 198.776 322.545,198.776 320.655,198.695 319.500 C 198.614 318.345,198.548 319.290,198.548 321.600 M171.913 346.295 C 173.076 346.376,174.876 346.376,175.913 346.293 C 176.951 346.211,176.000 346.145,173.800 346.146 C 171.600 346.147,170.751 346.214,171.913 346.295 " stroke="none" fill="#3b7bb3" fill-rule="evenodd"></path><path id="path1" d="M114.124 89.299 C 113.681 89.984,113.308 310.068,113.749 310.700 C 114.022 311.091,119.819 311.200,140.441 311.200 L 166.784 311.200 166.892 302.500 L 167.000 293.800 173.200 293.686 C 182.174 293.520,181.200 292.433,181.200 302.611 L 181.200 311.207 203.245 311.103 L 225.290 311.000 229.845 299.048 C 232.350 292.475,234.400 286.942,234.400 286.752 C 234.400 286.563,226.705 286.362,217.300 286.304 L 200.200 286.200 200.088 274.800 C 200.026 268.530,200.075 262.995,200.195 262.500 L 200.415 261.600 224.565 261.600 C 246.217 261.600,248.740 261.665,248.957 262.233 C 249.091 262.581,249.200 266.982,249.200 272.014 L 249.200 281.163 251.877 281.282 L 254.554 281.400 255.534 283.800 C 256.074 285.120,258.715 291.780,261.404 298.600 L 266.294 311.000 276.159 311.000 L 286.023 311.000 286.011 200.000 L 285.999 89.000 200.224 88.899 C 131.870 88.819,114.383 88.900,114.124 89.299 M224.720 113.680 C 225.389 114.349,225.389 125.251,224.720 125.920 C 224.023 126.617,138.777 126.617,138.080 125.920 C 137.411 125.251,137.411 114.349,138.080 113.680 C 138.777 112.983,224.023 112.983,224.720 113.680 M88.985 114.500 C 88.880 114.775,88.841 159.100,88.898 213.000 L 89.000 311.000 94.810 311.110 C 101.271 311.233,102.512 310.904,101.651 309.295 C 101.005 308.089,101.005 117.111,101.651 115.905 C 102.486 114.344,101.270 114.000,94.911 114.000 C 90.690 114.000,89.125 114.132,88.985 114.500 M261.800 162.800 L 261.800 187.400 200.000 187.400 L 138.200 187.400 138.096 163.200 C 138.039 149.890,138.079 138.774,138.184 138.499 C 138.337 138.099,150.929 138.018,200.088 138.099 L 261.800 138.200 261.800 162.800 M150.700 199.724 C 151.308 200.117,151.419 212.021,150.820 212.620 C 150.411 213.029,138.660 213.008,137.995 212.597 C 137.266 212.146,137.490 200.101,138.236 199.684 C 139.023 199.244,150.012 199.278,150.700 199.724 M261.520 200.080 C 262.425 200.985,262.168 211.882,261.230 212.384 C 259.586 213.264,163.684 212.904,163.208 212.015 C 162.615 210.906,162.676 200.684,163.280 200.080 C 163.977 199.383,260.823 199.383,261.520 200.080 M150.805 224.645 C 151.068 224.908,151.181 227.270,151.111 231.031 L 151.000 237.000 144.400 237.000 L 137.800 237.000 137.690 230.891 C 137.585 225.110,137.622 224.766,138.373 224.491 C 139.616 224.035,150.327 224.167,150.805 224.645 M261.500 224.984 C 262.550 225.385,262.173 236.660,261.100 236.948 C 259.224 237.451,163.788 237.228,163.280 236.720 C 162.705 236.145,162.602 226.317,163.161 225.274 C 163.507 224.625,259.821 224.341,261.500 224.984 M187.520 261.680 C 188.339 262.499,188.194 286.240,187.367 286.557 C 186.065 287.057,138.589 286.829,138.080 286.320 C 137.394 285.634,137.394 262.366,138.080 261.680 C 138.773 260.987,186.827 260.987,187.520 261.680 M238.762 285.890 C 238.527 286.501,237.082 290.304,235.550 294.342 C 234.019 298.380,231.230 305.580,229.353 310.342 C 227.477 315.104,224.439 322.960,222.602 327.800 C 220.766 332.640,217.698 340.560,215.786 345.400 C 213.873 350.240,212.067 354.875,211.772 355.700 L 211.235 357.200 216.118 357.195 L 221.000 357.190 222.539 352.895 C 226.472 341.915,227.193 340.362,228.633 339.760 C 230.470 338.993,261.258 338.944,262.800 339.706 C 263.991 340.294,264.496 341.319,267.968 350.200 L 270.627 357.000 275.761 357.112 C 279.808 357.201,280.852 357.116,280.690 356.712 C 280.578 356.431,278.315 350.800,275.663 344.200 C 271.765 334.500,258.329 300.687,253.251 287.800 L 252.148 285.000 245.668 284.890 L 239.188 284.780 238.762 285.890 M298.400 321.000 L 298.400 357.200 303.000 357.200 L 307.600 357.200 307.600 346.987 C 307.600 334.488,307.019 335.964,315.270 327.512 C 325.025 317.522,324.361 317.359,332.763 331.800 C 334.684 335.100,337.844 340.500,339.786 343.800 C 341.728 347.100,344.287 351.465,345.472 353.500 L 347.626 357.200 353.813 357.200 C 357.216 357.200,360.000 357.050,360.000 356.866 C 360.000 356.683,359.320 355.558,358.489 354.366 C 357.658 353.175,354.482 348.330,351.432 343.600 C 348.381 338.870,344.986 333.650,343.888 332.000 C 335.778 319.820,332.000 313.523,332.000 312.187 C 332.000 310.524,333.528 308.777,347.556 294.400 L 356.729 285.000 350.864 284.876 L 345.000 284.752 342.065 287.876 C 340.451 289.594,337.316 292.980,335.099 295.400 C 319.285 312.661,314.277 318.039,313.304 318.804 C 311.867 319.935,309.961 319.836,308.770 318.568 L 307.800 317.536 307.687 301.168 L 307.574 284.800 302.987 284.800 L 298.400 284.800 298.400 321.000 M247.566 297.500 C 248.099 297.937,249.454 300.984,251.168 305.600 C 252.679 309.670,255.195 316.376,256.758 320.503 C 259.907 328.817,260.127 330.166,258.568 331.630 L 257.536 332.600 245.577 332.600 L 233.618 332.600 232.569 331.551 C 231.001 329.983,231.215 328.731,234.605 319.600 C 236.280 315.090,238.651 308.610,239.874 305.200 C 242.743 297.202,244.750 295.193,247.566 297.500 M170.327 306.790 C 170.160 318.895,171.315 317.760,158.990 317.927 L 149.600 318.053 149.600 321.627 L 149.600 325.200 158.140 325.200 C 171.015 325.200,170.400 324.588,170.400 337.387 L 170.400 346.000 173.773 346.000 L 177.146 346.000 177.273 336.808 L 177.400 327.617 178.508 326.508 L 179.617 325.400 189.008 325.279 L 198.400 325.159 198.400 321.579 L 198.400 318.000 189.587 318.000 C 176.599 318.000,177.206 318.602,177.202 305.700 L 177.200 297.600 173.827 297.600 L 170.454 297.600 170.327 306.790 M243.623 305.477 C 242.684 308.050,241.825 310.391,241.715 310.678 C 241.559 311.085,242.361 311.200,245.357 311.200 C 247.471 311.200,249.200 311.118,249.200 311.019 C 249.200 310.784,245.577 301.043,245.437 300.904 C 245.379 300.846,244.563 302.903,243.623 305.477 " stroke="none" fill="#f9fafb" fill-rule="evenodd"></path><path id="path2" d="M113.789 88.899 C 113.686 89.175,113.557 94.890,113.501 101.600 L 113.400 113.800 101.000 113.800 L 88.600 113.800 88.600 212.600 L 88.600 311.400 127.600 311.409 C 149.050 311.414,154.818 311.368,140.417 311.306 C 126.016 311.245,114.089 311.049,113.912 310.872 C 113.542 310.502,113.577 125.079,113.951 103.400 L 114.200 89.000 200.100 89.000 L 285.999 89.000 286.012 200.000 L 286.024 311.000 276.112 311.214 L 266.200 311.428 276.400 311.414 L 286.600 311.400 286.600 200.000 L 286.600 88.600 200.288 88.499 C 131.446 88.419,113.938 88.500,113.789 88.899 M138.080 113.680 C 137.411 114.349,137.411 125.251,138.080 125.920 C 138.777 126.617,224.023 126.617,224.720 125.920 C 225.389 125.251,225.389 114.349,224.720 113.680 C 224.023 112.983,138.777 112.983,138.080 113.680 M101.374 114.532 C 101.968 114.966,102.019 115.218,101.651 115.905 C 101.005 117.111,101.005 308.089,101.651 309.295 C 102.512 310.904,101.271 311.233,94.810 311.110 L 89.000 311.000 88.898 213.000 C 88.841 159.100,88.880 114.775,88.985 114.500 C 89.263 113.768,100.368 113.796,101.374 114.532 M224.600 119.800 L 224.600 125.400 181.500 125.502 C 152.851 125.569,138.391 125.469,138.373 125.202 C 138.359 124.981,138.347 122.550,138.347 119.800 C 138.347 117.050,138.359 114.619,138.373 114.398 C 138.391 114.131,152.851 114.031,181.500 114.098 L 224.600 114.200 224.600 119.800 M138.184 138.499 C 138.079 138.774,138.039 149.890,138.096 163.200 L 138.200 187.400 200.000 187.400 L 261.800 187.400 261.800 162.800 L 261.800 138.200 200.088 138.099 C 150.929 138.018,138.337 138.099,138.184 138.499 M138.236 199.684 C 137.490 200.101,137.266 212.146,137.995 212.597 C 138.660 213.008,150.411 213.029,150.820 212.620 C 151.419 212.021,151.308 200.117,150.700 199.724 C 150.012 199.278,139.023 199.244,138.236 199.684 M163.280 200.080 C 162.676 200.684,162.615 210.906,163.208 212.015 C 163.684 212.904,259.586 213.264,261.230 212.384 C 262.168 211.882,262.425 200.985,261.520 200.080 C 260.823 199.383,163.977 199.383,163.280 200.080 M150.715 205.400 C 150.885 213.044,151.420 212.401,144.892 212.394 C 137.833 212.386,138.310 212.827,138.300 206.297 C 138.290 199.416,137.729 199.958,144.730 200.089 L 150.600 200.200 150.715 205.400 M138.373 224.491 C 137.622 224.766,137.585 225.110,137.690 230.891 L 137.800 237.000 144.400 237.000 L 151.000 237.000 151.111 231.031 C 151.181 227.270,151.068 224.908,150.805 224.645 C 150.327 224.167,139.616 224.035,138.373 224.491 M163.161 225.274 C 162.602 226.317,162.705 236.145,163.280 236.720 C 163.788 237.228,259.224 237.451,261.100 236.948 C 262.173 236.660,262.550 225.385,261.500 224.984 C 259.821 224.341,163.507 224.625,163.161 225.274 M150.616 225.730 C 150.734 226.209,150.779 228.850,150.716 231.600 L 150.600 236.600 144.428 236.600 L 138.256 236.600 138.287 231.128 C 138.304 228.119,138.439 225.461,138.586 225.222 C 139.177 224.266,150.370 224.739,150.616 225.730 M138.080 261.680 C 137.394 262.366,137.394 285.634,138.080 286.320 C 138.589 286.829,186.065 287.057,187.367 286.557 C 188.194 286.240,188.339 262.499,187.520 261.680 C 186.827 260.987,138.773 260.987,138.080 261.680 M200.195 262.500 C 200.075 262.995,200.026 268.530,200.088 274.800 L 200.200 286.200 217.500 286.400 C 230.172 286.546,234.800 286.480,234.800 286.150 C 234.800 285.902,235.248 284.687,235.795 283.450 L 236.790 281.200 242.995 281.200 L 249.200 281.200 249.200 272.033 C 249.200 266.991,249.091 262.581,248.957 262.233 C 248.740 261.665,246.217 261.600,224.565 261.600 L 200.415 261.600 200.195 262.500 M187.388 262.900 C 187.500 263.395,187.549 268.750,187.496 274.800 L 187.400 285.800 162.900 285.903 C 143.440 285.985,138.396 285.903,138.381 285.503 C 138.239 281.741,138.422 262.688,138.603 262.396 C 138.760 262.142,147.515 262.000,163.016 262.000 L 187.185 262.000 187.388 262.900 M349.578 292.300 L 348.200 293.800 349.700 292.422 C 350.525 291.663,351.200 290.988,351.200 290.922 C 351.200 290.616,350.862 290.904,349.578 292.300 M170.520 293.898 C 172.455 293.972,175.515 293.971,177.320 293.897 C 179.124 293.823,177.540 293.763,173.800 293.764 C 170.060 293.764,168.584 293.825,170.520 293.898 M180.988 302.600 L 181.000 311.400 203.100 311.405 L 225.200 311.410 203.208 311.302 L 181.216 311.193 181.096 302.497 L 180.975 293.800 180.988 302.600 M173.692 297.489 L 177.184 297.631 177.304 306.016 L 177.424 314.401 177.412 305.900 L 177.400 297.400 173.800 297.374 L 170.200 297.347 173.692 297.489 M336.581 305.700 L 335.000 307.400 336.700 305.819 C 338.281 304.348,338.584 304.000,338.281 304.000 C 338.216 304.000,337.451 304.765,336.581 305.700 M321.775 309.700 L 320.600 311.000 321.900 309.825 C 322.615 309.179,323.200 308.594,323.200 308.525 C 323.200 308.216,322.870 308.488,321.775 309.700 M245.400 311.200 L 241.400 311.445 245.500 311.523 C 248.018 311.570,249.600 311.446,249.600 311.200 C 249.600 310.980,249.555 310.835,249.500 310.877 C 249.445 310.920,247.600 311.065,245.400 311.200 M316.975 314.900 L 315.800 316.200 317.100 315.025 C 317.815 314.379,318.400 313.794,318.400 313.725 C 318.400 313.416,318.070 313.688,316.975 314.900 M317.991 324.700 L 314.600 328.200 318.100 324.809 C 321.351 321.659,321.782 321.200,321.491 321.200 C 321.431 321.200,319.856 322.775,317.991 324.700 M177.370 337.200 C 177.370 341.930,177.428 343.865,177.498 341.500 C 177.569 339.135,177.569 335.265,177.498 332.900 C 177.428 330.535,177.370 332.470,177.370 337.200 M270.751 357.313 C 270.924 357.485,273.301 357.574,276.033 357.511 L 281.000 357.397 275.719 357.198 C 272.814 357.089,270.579 357.141,270.751 357.313 M347.462 357.300 C 347.564 357.465,350.517 357.600,354.024 357.600 C 357.531 357.600,360.400 357.465,360.400 357.300 C 360.400 357.135,357.447 357.000,353.838 357.000 C 350.229 357.000,347.360 357.135,347.462 357.300 M213.500 357.496 C 214.875 357.574,217.125 357.574,218.500 357.496 C 219.875 357.418,218.750 357.354,216.000 357.354 C 213.250 357.354,212.125 357.418,213.500 357.496 M300.716 357.497 C 302.099 357.575,304.259 357.574,305.516 357.495 C 306.772 357.416,305.640 357.352,303.000 357.353 C 300.360 357.353,299.332 357.418,300.716 357.497 " stroke="none" fill="#9bbbd3" fill-rule="evenodd"></path><path id="path3" d="M236.563 282.628 C 236.231 283.422,235.176 286.170,234.218 288.736 C 233.260 291.301,230.829 297.540,228.815 302.600 C 222.209 319.198,206.400 360.088,206.400 360.575 C 206.400 360.707,210.222 360.767,214.893 360.708 L 223.385 360.600 226.569 351.700 L 229.753 342.800 245.635 342.800 L 261.517 342.800 262.935 346.500 C 263.715 348.535,265.240 352.540,266.323 355.400 L 268.294 360.600 277.175 360.708 C 282.060 360.767,285.969 360.673,285.861 360.499 C 285.754 360.325,281.412 349.477,276.212 336.391 C 271.013 323.306,266.486 311.970,266.152 311.200 C 265.818 310.430,262.980 303.410,259.845 295.600 L 254.145 281.400 245.656 281.292 L 237.166 281.184 236.563 282.628 M295.075 281.458 C 294.924 281.610,294.800 299.523,294.800 321.267 L 294.800 360.800 303.000 360.800 L 311.200 360.800 311.200 348.750 L 311.200 336.701 317.272 330.450 C 324.398 323.116,323.843 323.393,325.551 326.300 C 326.294 327.565,329.911 333.730,333.589 340.000 C 337.267 346.270,341.519 353.512,343.038 356.093 L 345.800 360.787 356.100 360.793 C 361.765 360.797,366.400 360.709,366.400 360.597 C 366.400 360.485,363.279 355.580,359.464 349.697 C 344.105 326.010,341.757 322.397,338.528 317.476 L 335.165 312.351 339.037 308.276 C 341.166 306.034,347.834 299.138,353.854 292.951 C 359.874 286.764,364.800 281.589,364.800 281.451 C 364.800 281.313,359.955 281.200,354.033 281.200 L 343.267 281.200 342.533 282.154 C 342.130 282.678,334.960 290.533,326.600 299.609 L 311.400 316.110 311.200 298.755 L 311.000 281.400 303.175 281.292 C 298.871 281.232,295.226 281.307,295.075 281.458 M258.765 300.905 C 262.376 309.977,267.388 322.530,269.904 328.800 C 272.419 335.070,275.919 343.890,277.682 348.400 C 279.445 352.910,280.979 356.830,281.091 357.112 C 281.251 357.515,280.137 357.600,275.807 357.512 L 270.320 357.400 267.437 349.800 C 265.851 345.620,264.336 341.801,264.070 341.314 C 263.181 339.684,261.511 339.542,244.709 339.675 L 228.817 339.800 227.841 340.800 C 227.214 341.442,225.872 344.591,224.090 349.600 L 221.316 357.400 216.010 357.512 C 211.060 357.616,210.724 357.576,210.990 356.912 C 211.147 356.520,212.615 352.690,214.253 348.400 C 215.891 344.110,219.648 334.390,222.602 326.800 C 233.337 299.209,235.314 294.113,237.140 289.307 L 239.000 284.414 245.600 284.411 L 252.200 284.409 258.765 300.905 M308.000 301.000 C 308.212 318.368,308.229 318.523,310.005 319.142 C 311.998 319.837,312.501 319.386,325.672 305.082 C 332.783 297.361,339.615 289.954,340.857 288.622 C 342.098 287.290,343.448 285.789,343.857 285.287 C 344.583 284.395,344.751 284.376,351.059 284.487 L 357.517 284.600 345.304 297.182 C 338.587 304.102,332.847 310.348,332.548 311.063 C 331.796 312.862,331.865 312.999,339.126 324.098 C 346.490 335.353,355.755 349.595,358.709 354.200 L 360.762 357.400 354.306 357.510 C 349.467 357.593,347.731 357.493,347.377 357.110 C 347.118 356.830,344.158 351.920,340.800 346.200 C 324.736 318.837,326.069 320.800,323.548 320.800 C 322.159 320.800,322.593 320.404,311.900 331.457 L 308.000 335.488 308.000 346.544 L 308.000 357.600 303.000 357.600 L 298.000 357.600 298.000 320.988 L 298.000 284.375 302.900 284.488 L 307.800 284.600 308.000 301.000 M167.197 302.090 C 167.195 306.551,167.080 311.142,166.942 312.293 L 166.690 314.387 156.445 314.493 L 146.200 314.600 146.200 321.600 L 146.200 328.600 156.500 328.707 L 166.800 328.814 166.800 339.007 L 166.800 349.200 173.800 349.200 L 180.800 349.200 180.800 339.000 L 180.800 328.800 191.200 328.800 L 201.600 328.800 201.600 321.600 L 201.600 314.400 191.207 314.400 L 180.814 314.400 180.707 304.300 L 180.600 294.200 173.900 294.090 L 167.200 293.981 167.197 302.090 M177.679 306.435 L 177.800 315.671 178.922 316.635 C 180.039 317.596,180.088 317.600,189.422 317.600 L 198.800 317.600 198.800 321.600 L 198.800 325.600 189.900 325.601 C 176.886 325.602,177.699 324.800,177.640 337.700 L 177.600 346.400 173.800 346.400 L 170.000 346.400 170.000 337.222 C 170.000 328.099,169.994 328.038,169.035 326.922 L 168.071 325.800 158.635 325.679 L 149.200 325.559 149.200 321.579 L 149.200 317.600 158.618 317.600 L 168.036 317.600 169.018 316.618 L 170.000 315.636 170.000 306.418 L 170.000 297.200 173.779 297.200 L 177.558 297.200 177.679 306.435 M243.419 298.100 C 242.195 299.173,232.402 325.793,232.108 328.844 C 231.772 332.328,232.049 332.400,245.672 332.400 L 257.236 332.400 258.218 331.418 C 259.837 329.800,258.566 325.488,249.755 302.697 C 247.549 296.990,245.981 295.853,243.419 298.100 M247.927 306.200 C 254.938 325.429,256.000 328.401,256.000 328.780 C 256.000 329.063,252.547 329.200,245.417 329.200 L 234.834 329.200 236.662 324.100 C 238.281 319.583,241.857 309.455,244.041 303.200 C 244.463 301.990,244.903 300.745,245.017 300.433 C 245.364 299.492,245.788 300.333,247.927 306.200 " stroke="none" fill="#040505" fill-rule="evenodd"></path><path id="path4" d="M239.061 284.700 C 238.958 284.865,240.882 284.953,243.337 284.895 C 251.428 284.705,252.296 284.552,245.724 284.476 C 242.162 284.434,239.163 284.535,239.061 284.700 M298.189 284.887 C 298.082 285.169,298.041 301.600,298.099 321.400 L 298.204 357.400 298.302 321.100 L 298.400 284.800 302.995 284.800 L 307.591 284.800 307.702 300.500 L 307.814 316.200 307.807 300.400 L 307.800 284.600 303.092 284.487 C 299.548 284.402,298.336 284.501,298.189 284.887 M350.779 284.700 L 356.958 284.822 353.979 287.911 L 351.000 291.000 354.100 288.010 C 358.065 284.186,358.247 284.385,350.900 284.489 L 344.600 284.578 350.779 284.700 M337.600 292.200 C 336.628 293.190,335.923 294.000,336.033 294.000 C 336.143 294.000,337.028 293.190,338.000 292.200 C 338.972 291.210,339.677 290.400,339.567 290.400 C 339.457 290.400,338.572 291.210,337.600 292.200 M166.970 302.400 C 166.970 307.130,167.028 309.065,167.098 306.700 C 167.169 304.335,167.169 300.465,167.098 298.100 C 167.028 295.735,166.970 297.670,166.970 302.400 M343.000 299.200 C 340.367 301.840,338.303 304.000,338.413 304.000 C 338.523 304.000,340.767 301.840,343.400 299.200 C 346.033 296.560,348.097 294.400,347.987 294.400 C 347.877 294.400,345.633 296.560,343.000 299.200 M170.171 306.000 C 170.171 310.950,170.228 312.975,170.299 310.500 C 170.369 308.025,170.369 303.975,170.299 301.500 C 170.228 299.025,170.171 301.050,170.171 306.000 M323.775 307.300 L 322.600 308.600 323.900 307.425 C 324.615 306.779,325.200 306.194,325.200 306.125 C 325.200 305.816,324.870 306.088,323.775 307.300 M333.775 308.900 L 332.600 310.200 333.900 309.025 C 334.615 308.379,335.200 307.794,335.200 307.725 C 335.200 307.416,334.870 307.688,333.775 308.900 M149.370 318.133 C 149.258 318.427,149.218 320.182,149.283 322.033 L 149.400 325.400 158.000 325.412 L 166.600 325.423 158.100 325.304 L 149.600 325.184 149.600 321.600 L 149.600 318.015 158.500 317.900 L 167.400 317.784 158.487 317.692 C 151.364 317.618,149.534 317.707,149.370 318.133 M185.100 317.899 C 187.575 317.969,191.625 317.969,194.100 317.899 C 196.575 317.828,194.550 317.771,189.600 317.771 C 184.650 317.771,182.625 317.828,185.100 317.899 M185.278 325.498 C 187.631 325.569,191.591 325.569,194.078 325.499 C 196.565 325.429,194.640 325.371,189.800 325.370 C 184.960 325.370,182.925 325.428,185.278 325.498 M312.585 330.500 L 310.600 332.600 312.700 330.615 C 313.855 329.523,314.800 328.578,314.800 328.515 C 314.800 328.217,314.429 328.549,312.585 330.500 M170.170 337.400 C 170.171 342.240,170.229 344.165,170.299 341.678 C 170.369 339.191,170.369 335.231,170.298 332.878 C 170.228 330.525,170.170 332.560,170.170 337.400 M240.124 332.699 C 243.162 332.767,248.022 332.767,250.924 332.699 C 253.826 332.631,251.340 332.575,245.400 332.575 C 239.460 332.575,237.086 332.631,240.124 332.699 M307.775 346.800 C 307.775 352.630,307.831 355.015,307.899 352.100 C 307.967 349.185,307.967 344.415,307.899 341.500 C 307.831 338.585,307.775 340.970,307.775 346.800 M237.700 339.500 C 242.045 339.564,249.155 339.564,253.500 339.500 C 257.845 339.435,254.290 339.382,245.600 339.382 C 236.910 339.382,233.355 339.435,237.700 339.500 " stroke="none" fill="#a4a4a4" fill-rule="evenodd"></path></g></svg>