<svg id="svg" xmlns="http://www.w3.org/2000/svg" xmlns:xlink="http://www.w3.org/1999/xlink" width="400" height="595.5307262569833" viewBox="0, 0, 400,595.5307262569833"><g id="svgg"><path id="path0" d="M0.000 297.600 L 0.000 595.200 200.000 595.200 L 400.000 595.200 400.000 297.600 L 400.000 0.000 200.000 0.000 L 0.000 0.000 0.000 297.600 M391.210 9.200 C 391.445 9.571,391.554 23.913,391.495 46.800 L 391.400 83.800 200.224 83.900 C 47.547 83.981,8.984 83.900,8.730 83.500 C 8.361 82.919,8.279 11.904,8.646 10.072 C 8.811 9.245,9.171 8.789,9.746 8.675 C 12.609 8.112,390.849 8.632,391.210 9.200 M195.904 111.744 L 195.800 131.000 102.800 131.094 C 44.661 131.153,9.575 131.046,9.200 130.809 C 8.588 130.422,8.022 95.578,8.590 93.301 L 8.815 92.402 101.907 92.301 C 153.108 92.245,195.227 92.265,195.504 92.344 C 195.902 92.458,195.986 96.534,195.904 111.744 M391.504 111.484 C 391.605 129.846,391.586 130.379,390.829 130.785 C 390.293 131.071,361.023 131.170,297.125 131.101 L 204.200 131.000 204.096 112.200 C 204.038 101.860,204.078 93.175,204.184 92.899 C 204.337 92.500,223.289 92.419,297.888 92.499 L 391.400 92.600 391.504 111.484 M130.000 138.918 L 131.000 139.424 131.102 176.568 C 131.177 203.681,131.082 213.860,130.753 214.257 C 130.377 214.710,120.287 214.800,69.741 214.800 L 9.180 214.800 8.790 213.774 C 8.547 213.135,8.400 199.067,8.400 176.450 C 8.400 138.722,8.377 139.258,10.000 138.678 C 11.423 138.169,128.985 138.404,130.000 138.918 M260.674 139.270 L 261.600 140.139 261.600 176.451 C 261.600 203.155,261.477 213.032,261.136 213.781 L 260.672 214.800 200.216 214.800 C 153.728 214.800,139.649 214.689,139.280 214.320 C 138.426 213.466,138.603 140.080,139.462 139.131 C 140.098 138.429,142.499 138.400,199.936 138.400 L 259.748 138.400 260.674 139.270 M390.400 138.918 L 391.400 139.424 391.502 176.568 C 391.577 203.681,391.482 213.860,391.153 214.257 C 390.480 215.068,269.920 215.068,269.247 214.257 C 268.918 213.860,268.823 203.681,268.898 176.568 L 269.000 139.424 270.000 138.918 C 270.793 138.517,283.266 138.412,330.200 138.412 C 377.134 138.412,389.607 138.517,390.400 138.918 M391.186 223.174 C 391.469 223.702,391.600 260.690,391.600 339.751 L 391.600 455.555 390.711 456.177 C 389.128 457.286,10.310 457.110,9.200 456.000 C 8.298 455.098,7.894 225.783,8.790 223.426 L 9.180 222.400 199.976 222.400 C 388.201 222.400,390.777 222.410,391.186 223.174 M391.208 464.800 C 391.623 465.456,391.765 501.104,391.357 502.167 C 391.136 502.743,373.915 502.800,200.147 502.800 L 9.180 502.800 8.790 501.774 C 8.364 500.654,8.232 467.738,8.646 465.672 C 8.811 464.845,9.171 464.389,9.746 464.275 C 12.609 463.712,390.849 464.232,391.208 464.800 M131.102 548.557 C 131.177 575.678,131.082 585.860,130.753 586.257 C 130.202 586.920,10.247 587.070,9.200 586.409 C 8.594 586.026,8.011 514.477,8.595 512.099 L 8.816 511.197 69.908 511.299 L 131.000 511.400 131.102 548.557 M261.157 511.748 C 261.888 512.629,261.589 585.250,260.851 586.139 C 260.187 586.939,141.061 587.182,139.574 586.386 C 138.789 585.966,138.290 512.243,139.067 511.467 C 139.650 510.884,260.671 511.163,261.157 511.748 M391.503 548.600 C 391.600 583.218,391.560 585.835,390.927 586.300 C 389.776 587.146,270.277 587.020,269.429 586.171 C 268.771 585.514,268.417 512.116,269.068 511.465 C 269.215 511.318,296.800 511.243,330.368 511.299 L 391.400 511.400 391.503 548.600 " stroke="none" fill="#fbfbfb" fill-rule="evenodd"></path><path id="path1" d="M10.267 10.266 C 9.626 10.908,9.970 83.103,10.616 83.351 C 10.955 83.481,96.410 83.545,200.516 83.494 L 389.800 83.400 389.800 46.800 L 389.800 10.200 200.167 10.100 C 95.869 10.044,10.414 10.119,10.267 10.266 M10.096 111.253 L 10.200 129.400 101.600 129.620 C 151.870 129.741,193.495 129.987,194.100 130.167 L 195.200 130.493 195.200 111.804 C 195.200 94.140,195.162 93.133,194.500 93.457 C 193.673 93.862,109.555 93.832,51.096 93.406 L 9.992 93.106 10.096 111.253 M204.896 111.403 L 205.000 129.607 297.141 129.602 C 347.818 129.599,389.443 129.497,389.641 129.375 C 389.844 129.249,390.000 121.363,390.000 111.176 L 390.000 93.200 297.396 93.200 L 204.792 93.200 204.896 111.403 M10.098 176.500 L 10.200 213.000 69.900 213.101 L 129.600 213.203 129.600 176.601 L 129.600 140.000 69.798 140.000 L 9.996 140.000 10.098 176.500 M140.000 176.600 L 140.000 213.200 200.000 213.200 L 260.000 213.200 260.000 176.600 L 260.000 140.000 200.000 140.000 L 140.000 140.000 140.000 176.600 M270.498 176.500 L 270.600 213.000 330.300 213.101 L 390.000 213.203 390.000 176.601 L 390.000 140.000 330.198 140.000 L 270.396 140.000 270.498 176.500 M10.267 223.866 C 10.120 224.013,10.000 276.123,10.000 339.667 L 10.000 455.200 200.001 455.200 L 390.001 455.200 389.901 339.500 L 389.800 223.800 200.167 223.700 C 95.869 223.644,10.414 223.719,10.267 223.866 M10.267 465.866 C 9.616 466.517,9.973 501.104,10.633 501.357 C 11.591 501.725,388.924 501.636,389.504 501.268 C 389.900 501.016,389.986 497.167,389.904 483.374 L 389.800 465.800 200.167 465.700 C 95.869 465.644,10.414 465.719,10.267 465.866 M10.098 548.500 L 10.200 585.000 69.800 585.000 L 129.400 585.000 129.502 548.500 L 129.604 512.000 69.800 512.000 L 9.996 512.000 10.098 548.500 M140.000 548.600 L 140.000 585.200 200.000 585.200 L 260.000 585.200 260.000 548.600 L 260.000 512.000 200.000 512.000 L 140.000 512.000 140.000 548.600 M270.498 548.500 L 270.600 585.000 330.200 585.000 L 389.800 585.000 389.902 548.500 L 390.004 512.000 330.200 512.000 L 270.396 512.000 270.498 548.500 " stroke="none" fill="#343434" fill-rule="evenodd"></path></g></svg>